<svg version="1.2" xmlns="http://www.w3.org/2000/svg" viewBox="0 0 1157 171" width="1157" height="171">
	<style>
		.s0 { fill: #000000 } 
	</style>
	<path id="mokhaLab" class="s0" aria-label="mokhaLab"  d="m101.3 100.4v67.6h-22.4v-67.6q0-15.4-7.9-23.4-7.5-8.1-20.1-8.1-12.7 0-20.3 8.1-7.6 7.8-7.6 23.4v67.6h-22.4v-67.6q0-25.8 13.2-39 13.5-13.3 35-13.3 28.4 0 40.9 22.7h0.5q12.5-22.7 40.9-22.7 21.5 0 34.8 13.3 13.4 13.2 13.4 39v67.6h-22.4v-67.6q0-15.6-7.6-23.4-7.6-8.1-20.3-8.1-12.6 0-20.1 8.1-7.6 8-7.6 23.4zm204.6-34.8q17.7 17.3 17.7 44 0 26.7-17.7 44.2-17.5 17.3-45.1 17.3-27.7 0-45.4-17.3-17.5-17.5-17.5-44.2 0-26.7 17.5-44 17.7-17.5 45.4-17.5 27.6 0 45.1 17.5zm-74.2 73.3q11.1 11.4 29.1 11.4 17.9 0 29-11.4 11.1-11.3 11.1-29.3 0-18-11.1-29.3-11.1-11.4-29-11.4-18 0-29.1 11.4-11.1 11.3-11.1 29.3 0 18 11.1 29.3zm137.1-24.8v53.9h-22.4v-167.9h22.4v102.4h0.5l53.2-51.3h29.6l-61 57 63.1 59.8h-30l-54.9-53.9zm162.2-45.2q-16 0-25.7 10-9.5 9.9-9.5 28.3v60.8h-22.5v-167.9h22.5v69.3h0.5q12-21.3 38.5-21.3 23.4 0 38.6 15.2 15.3 14.8 15.3 43.9v60.8h-22.4v-60.8q0-18.6-9.5-28.3-9.4-10-25.8-10zm201.1 41.6v57.5h-20.5v-24.4h-0.5q-5.4 12.6-17.5 20.1-11.8 7.4-27.7 7.4-24.1 0-41.6-16.6-17.5-16.5-17.5-44.9 0-26.7 17.5-44 17.8-17.5 45.4-17.5 27.7 0 45 17.3 17.4 17.2 17.4 45.1zm-91.5 28.4q11.2 11.4 29.1 11.4 18 0 29.1-11.4 11.1-11.3 11.1-29.3 0-18-11.1-29.3-11.1-11.4-29.1-11.4-17.9 0-29.1 11.4-11.1 11.3-11.1 29.3 0 18 11.1 29.3zm230.1 6.9v22.2h-110.9v-154.6h24.1v132.4zm137.5-35.3v57.5h-20.6v-24.4h-0.5q-5.4 12.6-17.5 20.1-11.8 7.4-27.6 7.4-24.2 0-41.6-16.6-17.5-16.5-17.5-44.9 0-26.7 17.5-44 17.7-17.5 45.3-17.5 27.7 0 45 17.3 17.5 17.2 17.5 45.1zm-91.5 28.4q11.1 11.4 29 11.4 18 0 29.1-11.4 11.1-11.3 11.1-29.3 0-18-11.1-29.3-11.1-11.4-29.1-11.4-17.9 0-29 11.4-11.1 11.3-11.1 29.3 0 18 11.1 29.3zm177.3 11.4q18 0 29.1-11.4 11.1-11.3 11.1-29.3 0-18-11.1-29.3-11.1-11.4-29.1-11.4-17.7 0-28.8 11.6-11.2 11.4-11.2 29.1 0 17.7 11.2 29.3 11.1 11.4 28.8 11.4zm-62.4-41.6v-108.6h22.4v71h0.5q6.2-10.7 17.5-16.8 11.4-6.2 26-6.2 24.1 0 41.4 16.6 17.5 16.5 17.5 44.9 0 26.7-17.7 44.2-17.5 17.3-45.2 17.3-27.9 0-45.2-17.1-17.2-17.2-17.2-45.3z"/>
</svg>